<?xml version="1.0" standalone="no"?><!DOCTYPE svg PUBLIC "-//W3C//DTD SVG 1.1//EN" "http://www.w3.org/Graphics/SVG/1.1/DTD/svg11.dtd"><svg t="1723019254970" class="icon" viewBox="0 0 1024 1024" version="1.1" xmlns="http://www.w3.org/2000/svg" p-id="4260" xmlns:xlink="http://www.w3.org/1999/xlink" width="128" height="128"><path d="M554.667 554.667V792.96l77.994-77.995 60.374 60.374L512 956.33 330.965 775.339l60.374-60.374 77.994 77.995V554.667h85.334zM512 85.333a298.71 298.71 0 0 1 296.704 264.278 234.667 234.667 0 0 1-40.661 460.117v-85.93a149.333 149.333 0 1 0-47.446-294.827 213.333 213.333 0 1 0-417.152 0 149.333 149.333 0 0 0-55.125 293.546l7.68 1.28v85.931a234.667 234.667 0 0 1-40.704-460.117A298.667 298.667 0 0 1 512 85.333z" p-id="4261"></path></svg>