{
  "accessors": [
    {
      "name": "Castle_Exterior_1_0_positions",
      "componentType": 5126,
      "count": 5396,
      "min": [
        -27.1485595703125,
        0,
        -38.173030853271484
      ],
      "max": [
        26.22051239013672,
        10.916658401489258,
        24.59332275390625
      ],
      "type": "VEC3",
      "bufferView": 0,
      "byteOffset": 0
    },
    {
      "name": "Castle_Exterior_1_0_normals",
      "componentType": 5126,
      "count": 5396,
      "min": [
        -1,
        -0.9872026443481445,
        -1
      ],
      "max": [
        1,
        1,
        1
      ],
      "type": "VEC3",
      "bufferView": 1,
      "byteOffset": 0
    },
    {
      "name": "Castle_Exterior_1_0_texcoords",
      "componentType": 5126,
      "count": 5396,
      "min": [
        0.00837900023907423,
        0.004557000007480383
      ],
      "max": [
        0.9940369725227356,
        0.9941610097885132
      ],
      "type": "VEC2",
      "bufferView": 2,
      "byteOffset": 0
    },
    {
      "name": "Castle_Exterior_1_0_indices",
      "componentType": 5123,
      "count": 8946,
      "min": [
        0
      ],
      "max": [
        5395
      ],
      "type": "SCALAR",
      "bufferView": 3,
      "byteOffset": 0
    },
    {
      "name": "Towers_Doors_and_Windows_1_0_positions",
      "componentType": 5126,
      "count": 2620,
      "min": [
        -22.682096481323242,
        0,
        -32.95883560180664
      ],
      "max": [
        21.385385513305664,
        40.256370544433594,
        21.010089874267578
      ],
      "type": "VEC3",
      "bufferView": 0,
      "byteOffset": 64752
    },
    {
      "name": "Towers_Doors_and_Windows_1_0_normals",
      "componentType": 5126,
      "count": 2620,
      "min": [
        -1,
        -1,
        -1
      ],
      "max": [
        1,
        1,
        1
      ],
      "type": "VEC3",
      "bufferView": 1,
      "byteOffset": 64752
    },
    {
      "name": "Towers_Doors_and_Windows_1_0_texcoords",
      "componentType": 5126,
      "count": 2620,
      "min": [
        0.008279000408947468,
        0.006870000157505274
      ],
      "max": [
        0.9934329986572266,
        0.9912779927253723
      ],
      "type": "VEC2",
      "bufferView": 2,
      "byteOffset": 43168
    },
    {
      "name": "Towers_Doors_and_Windows_1_0_indices",
      "componentType": 5123,
      "count": 6804,
      "min": [
        0
      ],
      "max": [
        2619
      ],
      "type": "SCALAR",
      "bufferView": 3,
      "byteOffset": 17892
    },
    {
      "name": "Ground_and_Fountain_1_0_positions",
      "componentType": 5126,
      "count": 746,
      "min": [
        -29.062774658203125,
        0.22533799707889557,
        -37.84030532836914
      ],
      "max": [
        29.04663848876953,
        3.617892026901245,
        37.42893600463867
      ],
      "type": "VEC3",
      "bufferView": 0,
      "byteOffset": 96192
    },
    {
      "name": "Ground_and_Fountain_1_0_normals",
      "componentType": 5126,
      "count": 746,
      "min": [
        -1,
        -0.7141860127449036,
        -1
      ],
      "max": [
        1,
        1,
        1
      ],
      "type": "VEC3",
      "bufferView": 1,
      "byteOffset": 96192
    },
    {
      "name": "Ground_and_Fountain_1_0_texcoords",
      "componentType": 5126,
      "count": 746,
      "min": [
        0.012608000077307224,
        0.006016999948769808
      ],
      "max": [
        0.9495970010757446,
        0.9877499938011169
      ],
      "type": "VEC2",
      "bufferView": 2,
      "byteOffset": 64128
    },
    {
      "name": "Ground_and_Fountain_1_0_indices",
      "componentType": 5123,
      "count": 2778,
      "min": [
        0
      ],
      "max": [
        745
      ],
      "type": "SCALAR",
      "bufferView": 3,
      "byteOffset": 31500
    },
    {
      "name": "Castle_Interior_1_0_positions",
      "componentType": 5126,
      "count": 3675,
      "min": [
        -21.10149574279785,
        -0.000014999999621068127,
        -32.2086067199707
      ],
      "max": [
        19.939565658569336,
        28.46502113342285,
        -9.007675170898438
      ],
      "type": "VEC3",
      "bufferView": 0,
      "byteOffset": 105144
    },
    {
      "name": "Castle_Interior_1_0_normals",
      "componentType": 5126,
      "count": 3675,
      "min": [
        -1,
        -1,
        -1
      ],
      "max": [
        1,
        1,
        1
      ],
      "type": "VEC3",
      "bufferView": 1,
      "byteOffset": 105144
    },
    {
      "name": "Castle_Interior_1_0_texcoords",
      "componentType": 5126,
      "count": 3675,
      "min": [
        0.005859000142663717,
        0.0020169999916106462
      ],
      "max": [
        0.9933779835700989,
        0.9870889782905579
      ],
      "type": "VEC2",
      "bufferView": 2,
      "byteOffset": 70096
    },
    {
      "name": "Castle_Interior_1_0_indices",
      "componentType": 5123,
      "count": 6909,
      "min": [
        0
      ],
      "max": [
        3674
      ],
      "type": "SCALAR",
      "bufferView": 3,
      "byteOffset": 37056
    }
  ],
  "asset": {
    "generator": "obj2gltf",
    "version": "2.0"
  },
  "buffers": [
    {
      "name": "Castle OBJ",
      "byteLength": 448860,
      "uri": "data:application/octet-stream;base64,"
    }
  ],
  "bufferViews": [
    {
      "name": "bufferView_0",
      "buffer": 0,
      "byteLength": 149244,
      "byteOffset": 0,
      "byteStride": 12,
      "target": 34962
    },
    {
      "name": "bufferView_1",
      "buffer": 0,
      "byteLength": 149244,
      "byteOffset": 149244,
      "byteStride": 12,
      "target": 34962
    },
    {
      "name": "bufferView_2",
      "buffer": 0,
      "byteLength": 99496,
      "byteOffset": 298488,
      "byteStride": 8,
      "target": 34962
    },
    {
      "name": "bufferView_3",
      "buffer": 0,
      "byteLength": 50876,
      "byteOffset": 397984,
      "target": 34963
    }
  ],
  "materials": [
    {
      "name": "lambert9SG",
      "pbrMetallicRoughness": {
        "baseColorFactor": [
          0,
          0,
          0,
          1
        ],
        "metallicFactor": 0,
        "roughnessFactor": 1
      },
      "emissiveFactor": [
        0,
        0,
        0
      ],
      "alphaMode": "OPAQUE",
      "doubleSided": false
    },
    {
      "name": "lambert11SG",
      "pbrMetallicRoughness": {
        "baseColorFactor": [
          0,
          0,
          0,
          1
        ],
        "metallicFactor": 0,
        "roughnessFactor": 1
      },
      "emissiveFactor": [
        0,
        0,
        0
      ],
      "alphaMode": "OPAQUE",
      "doubleSided": false
    },
    {
      "name": "lambert10SG",
      "pbrMetallicRoughness": {
        "baseColorFactor": [
          0,
          0,
          0,
          1
        ],
        "metallicFactor": 0,
        "roughnessFactor": 1
      },
      "emissiveFactor": [
        0,
        0,
        0
      ],
      "alphaMode": "OPAQUE",
      "doubleSided": false
    },
    {
      "name": "lambert12SG",
      "pbrMetallicRoughness": {
        "baseColorFactor": [
          0,
          0,
          0,
          1
        ],
        "metallicFactor": 0,
        "roughnessFactor": 1
      },
      "emissiveFactor": [
        0,
        0,
        0
      ],
      "alphaMode": "OPAQUE",
      "doubleSided": false
    }
  ],
  "meshes": [
    {
      "name": "Castle_Exterior_1",
      "primitives": [
        {
          "attributes": {
            "POSITION": 0,
            "NORMAL": 1,
            "TEXCOORD_0": 2
          },
          "indices": 3,
          "material": 0,
          "mode": 4
        }
      ]
    },
    {
      "name": "Towers_Doors_and_Windows_1",
      "primitives": [
        {
          "attributes": {
            "POSITION": 4,
            "NORMAL": 5,
            "TEXCOORD_0": 6
          },
          "indices": 7,
          "material": 1,
          "mode": 4
        }
      ]
    },
    {
      "name": "Ground_and_Fountain_1",
      "primitives": [
        {
          "attributes": {
            "POSITION": 8,
            "NORMAL": 9,
            "TEXCOORD_0": 10
          },
          "indices": 11,
          "material": 2,
          "mode": 4
        }
      ]
    },
    {
      "name": "Castle_Interior_1",
      "primitives": [
        {
          "attributes": {
            "POSITION": 12,
            "NORMAL": 13,
            "TEXCOORD_0": 14
          },
          "indices": 15,
          "material": 3,
          "mode": 4
        }
      ]
    }
  ],
  "nodes": [
    {
      "name": "Castle_Exterior",
      "mesh": 0
    },
    {
      "name": "Towers_Doors_and_Windows",
      "mesh": 1
    },
    {
      "name": "Ground_and_Fountain",
      "mesh": 2
    },
    {
      "name": "Castle_Interior",
      "mesh": 3
    }
  ],
  "scene": 0,
  "scenes": [
    {
      "nodes": [
        0,
        1,
        2,
        3
      ]
    }
  ]
}
